<svg width="64" height="64" viewBox="0 0 64 64" fill="none" xmlns="http://www.w3.org/2000/svg">
<g clip-path="url(#clip0_4020_2534)">
<path d="M32 2C15.431 2 2 15.431 2 32C2 48.569 15.431 62 32 62C48.569 62 62 48.569 62 32C62 15.431 48.569 2 32 2Z" stroke="black" stroke-opacity="0.75" stroke-width="3" stroke-linecap="round" stroke-linejoin="round"/>
<path d="M8.81445 51.038C8.81445 51.038 15.5015 42.5 32.0015 42.5C48.5015 42.5 55.1915 51.038 55.1915 51.038M32.0015 32C34.3884 32 36.6776 31.0518 38.3654 29.364C40.0532 27.6761 41.0015 25.3869 41.0015 23C41.0015 20.6131 40.0532 18.3239 38.3654 16.636C36.6776 14.9482 34.3884 14 32.0015 14C29.6145 14 27.3253 14.9482 25.6375 16.636C23.9497 18.3239 23.0015 20.6131 23.0015 23C23.0015 25.3869 23.9497 27.6761 25.6375 29.364C27.3253 31.0518 29.6145 32 32.0015 32Z" stroke="black" stroke-opacity="0.75" stroke-width="3" stroke-linecap="round" stroke-linejoin="round"/>
</g>
<defs>
<clipPath id="clip0_4020_2534">
<rect width="64" height="64" fill="white"/>
</clipPath>
</defs>
</svg>
